<svg xmlns="http://www.w3.org/2000/svg" xmlns:xlink="http://www.w3.org/1999/xlink" width="109" zoomAndPan="magnify" viewBox="0 0 81.75 77.999999" height="104" preserveAspectRatio="xMidYMid meet" version="1.0"><defs><filter x="0%" y="0%" width="100%" height="100%" id="8830478386"><feColorMatrix values="0 0 0 0 1 0 0 0 0 1 0 0 0 0 1 0 0 0 1 0" color-interpolation-filters="sRGB"/></filter><clipPath id="65a4320c56"><path d="M 29 7 L 81.5 7 L 81.5 25 L 29 25 Z M 29 7 " clip-rule="nonzero"/></clipPath><mask id="6b6c77cdd3"><g filter="url(#8830478386)"><rect x="-8.175" width="98.1" fill="#000000" y="-7.8" height="93.599999" fill-opacity="0.8"/></g></mask><clipPath id="31430d1a26"><path d="M 0.59375 0.101562 L 51.882812 0.101562 L 51.882812 17.300781 L 0.59375 17.300781 Z M 0.59375 0.101562 " clip-rule="nonzero"/></clipPath><clipPath id="a9f2fcbe97"><rect x="0" width="53" y="0" height="18"/></clipPath><clipPath id="9bff5562af"><path d="M 27 30 L 69 30 L 69 72 L 27 72 Z M 27 30 " clip-rule="nonzero"/></clipPath><clipPath id="1f11f547df"><path d="M 27.605469 69.128906 L 53.613281 24.570312 L 68.464844 33.242188 L 42.457031 77.796875 Z M 27.605469 69.128906 " clip-rule="nonzero"/></clipPath><clipPath id="f67db53d8c"><path d="M 42.46875 77.804688 L 68.476562 33.246094 L 53.625 24.578125 L 27.617188 69.132812 Z M 42.46875 77.804688 " clip-rule="nonzero"/></clipPath><clipPath id="205db00a39"><path d="M 6 0.117188 L 35 0.117188 L 35 54 L 6 54 Z M 6 0.117188 " clip-rule="nonzero"/></clipPath><clipPath id="f39b37ec3e"><path d="M 14.917969 0.121094 L 40.632812 44.851562 L 25.722656 53.421875 L 0.0117188 8.691406 Z M 14.917969 0.121094 " clip-rule="nonzero"/></clipPath><clipPath id="cda026e672"><path d="M 0 8.699219 L 25.710938 53.425781 L 40.621094 44.855469 L 14.910156 0.128906 Z M 0 8.699219 " clip-rule="nonzero"/></clipPath></defs><g clip-path="url(#65a4320c56)"><g mask="url(#6b6c77cdd3)"><g transform="matrix(1, 0, 0, 1, 29, 7)"><g clip-path="url(#a9f2fcbe97)"><g clip-path="url(#31430d1a26)"><path fill="#5271ff" d="M 52.183594 17.296875 L 17.496094 17.296875 C 7.992188 17.296875 0.289062 9.59375 0.289062 0.09375 L 34.980469 0.09375 C 44.480469 0.09375 52.183594 7.796875 52.183594 17.296875 Z M 52.183594 17.296875 " fill-opacity="1" fill-rule="nonzero"/></g></g></g></g></g><g clip-path="url(#9bff5562af)"><g clip-path="url(#1f11f547df)"><g clip-path="url(#f67db53d8c)"><path fill="#5271ff" d="M 68.628906 32.984375 L 59.90625 47.921875 L 51.1875 62.863281 L 51.140625 62.945312 C 46.351562 71.148438 35.8125 73.917969 27.605469 69.128906 L 36.328125 54.1875 L 45.046875 39.25 L 45.09375 39.167969 C 49.886719 30.960938 60.421875 28.195312 68.628906 32.984375 Z M 68.628906 32.984375 " fill-opacity="1" fill-rule="nonzero"/></g></g></g><g clip-path="url(#205db00a39)"><g clip-path="url(#f39b37ec3e)"><g clip-path="url(#cda026e672)"><path fill="#5271ff" d="M 25.863281 53.691406 L 17.242188 38.691406 L 8.621094 23.695312 L 8.578125 23.613281 C 3.839844 15.375 6.679688 4.859375 14.917969 0.121094 L 23.539062 15.121094 L 32.160156 30.117188 L 32.207031 30.199219 C 36.941406 38.4375 34.101562 48.953125 25.863281 53.691406 Z M 25.863281 53.691406 " fill-opacity="1" fill-rule="nonzero"/></g></g></g></svg>
