<svg xmlns="http://www.w3.org/2000/svg" xmlns:xlink="http://www.w3.org/1999/xlink" width="333" zoomAndPan="magnify" viewBox="0 0 249.75 84.749999" height="113" preserveAspectRatio="xMidYMid meet" version="1.0"><defs><filter x="0%" y="0%" width="100%" height="100%" id="3f823aab43"><feColorMatrix values="0 0 0 0 1 0 0 0 0 1 0 0 0 0 1 0 0 0 1 0" color-interpolation-filters="sRGB"/></filter><g/><mask id="b093d61fe9"><g filter="url(#3f823aab43)"><rect x="-24.975" width="299.7" fill="#000000" y="-8.475" height="101.699999" fill-opacity="0.8"/></g></mask><clipPath id="0296f5db7b"><path d="M 0.839844 0.390625 L 52.132812 0.390625 L 52.132812 17.589844 L 0.839844 17.589844 Z M 0.839844 0.390625 " clip-rule="nonzero"/></clipPath><clipPath id="4e5a31de58"><rect x="0" width="53" y="0" height="18"/></clipPath><clipPath id="565d684e03"><path d="M 27 36 L 69 36 L 69 78 L 27 78 Z M 27 36 " clip-rule="nonzero"/></clipPath><clipPath id="f0a5d33274"><path d="M 27.851562 75.425781 L 53.863281 30.863281 L 68.714844 39.53125 L 42.703125 84.09375 Z M 27.851562 75.425781 " clip-rule="nonzero"/></clipPath><clipPath id="c86bdb405f"><path d="M 42.714844 84.101562 L 68.726562 39.539062 L 53.871094 30.867188 L 27.859375 75.429688 Z M 42.714844 84.101562 " clip-rule="nonzero"/></clipPath><clipPath id="acd95b69a3"><path d="M 6 6 L 35 6 L 35 60 L 6 60 Z M 6 6 " clip-rule="nonzero"/></clipPath><clipPath id="396b7803d9"><path d="M 15.164062 6.410156 L 40.878906 51.144531 L 25.96875 59.714844 L 0.253906 14.980469 Z M 15.164062 6.410156 " clip-rule="nonzero"/></clipPath><clipPath id="8c3ed2da3a"><path d="M 0.242188 14.988281 L 25.957031 59.722656 L 40.867188 51.148438 L 15.152344 6.417969 Z M 0.242188 14.988281 " clip-rule="nonzero"/></clipPath></defs><g mask="url(#b093d61fe9)"><g transform="matrix(1, 0, 0, 1, 29, 13)"><g clip-path="url(#4e5a31de58)"><g clip-path="url(#0296f5db7b)"><path fill="#5271ff" d="M 52.4375 17.589844 L 17.742188 17.589844 C 8.238281 17.589844 0.535156 9.886719 0.535156 0.382812 L 35.230469 0.382812 C 44.734375 0.382812 52.4375 8.085938 52.4375 17.589844 Z M 52.4375 17.589844 " fill-opacity="1" fill-rule="nonzero"/></g></g></g></g><g clip-path="url(#565d684e03)"><g clip-path="url(#f0a5d33274)"><g clip-path="url(#c86bdb405f)"><path fill="#5271ff" d="M 68.878906 39.277344 L 51.433594 69.160156 L 51.386719 69.238281 C 46.597656 77.445312 36.058594 80.214844 27.851562 75.425781 L 45.296875 45.542969 L 45.34375 45.460938 C 50.132812 37.253906 60.671875 34.484375 68.878906 39.277344 Z M 68.878906 39.277344 " fill-opacity="1" fill-rule="nonzero"/></g></g></g><g clip-path="url(#acd95b69a3)"><g clip-path="url(#396b7803d9)"><g clip-path="url(#8c3ed2da3a)"><path fill="#5271ff" d="M 26.109375 59.984375 L 8.867188 29.984375 L 8.820312 29.90625 C 4.082031 21.667969 6.921875 11.148438 15.164062 6.410156 L 32.40625 36.410156 L 32.453125 36.488281 C 37.191406 44.730469 34.351562 55.246094 26.109375 59.984375 Z M 26.109375 59.984375 " fill-opacity="1" fill-rule="nonzero"/></g></g></g><g fill="#ffffff" fill-opacity="1"><g transform="translate(90.065505, 50.095941)"><g><path d="M 4.5625 -28.15625 L 12.921875 -4.453125 L 13.25 -4.453125 L 21.609375 -28.15625 L 25.1875 -28.15625 L 14.84375 0 L 11.328125 0 L 0.984375 -28.15625 Z M 4.5625 -28.15625 "/></g></g></g><g fill="#ffffff" fill-opacity="1"><g transform="translate(114.612559, 50.095941)"><g><path d="M 2.96875 0 L 2.96875 -21.125 L 6.21875 -21.125 L 6.21875 0 Z M 4.625 -24.640625 C 3.988281 -24.640625 3.441406 -24.851562 2.984375 -25.28125 C 2.535156 -25.71875 2.3125 -26.238281 2.3125 -26.84375 C 2.3125 -27.445312 2.535156 -27.960938 2.984375 -28.390625 C 3.441406 -28.828125 3.988281 -29.046875 4.625 -29.046875 C 5.25 -29.046875 5.789062 -28.828125 6.25 -28.390625 C 6.707031 -27.960938 6.9375 -27.445312 6.9375 -26.84375 C 6.9375 -26.238281 6.707031 -25.71875 6.25 -25.28125 C 5.789062 -24.851562 5.25 -24.640625 4.625 -24.640625 Z M 4.625 -24.640625 "/></g></g></g><g fill="#ffffff" fill-opacity="1"><g transform="translate(122.168898, 50.095941)"><g><path d="M 6.21875 -12.703125 L 6.21875 0 L 2.96875 0 L 2.96875 -21.125 L 6.109375 -21.125 L 6.109375 -17.8125 L 6.375 -17.8125 C 6.875 -18.882812 7.625 -19.75 8.625 -20.40625 C 9.632812 -21.0625 10.941406 -21.390625 12.546875 -21.390625 C 14.679688 -21.390625 16.40625 -20.734375 17.71875 -19.421875 C 19.03125 -18.117188 19.6875 -16.117188 19.6875 -13.421875 L 19.6875 0 L 16.4375 0 L 16.4375 -13.203125 C 16.4375 -14.859375 16.003906 -16.148438 15.140625 -17.078125 C 14.285156 -18.015625 13.109375 -18.484375 11.609375 -18.484375 C 10.054688 -18.484375 8.769531 -17.976562 7.75 -16.96875 C 6.726562 -15.96875 6.21875 -14.546875 6.21875 -12.703125 Z M 6.21875 -12.703125 "/></g></g></g><g fill="#5271ff" fill-opacity="1"><g transform="translate(143.205622, 50.095941)"><g><path d="M 1.875 -25.140625 L 1.875 -28.15625 L 22.984375 -28.15625 L 22.984375 -25.140625 L 14.140625 -25.140625 L 14.140625 0 L 10.71875 0 L 10.71875 -25.140625 Z M 1.875 -25.140625 "/></g></g></g><g fill="#5271ff" fill-opacity="1"><g transform="translate(166.433014, 50.095941)"><g><path d="M 11.828125 0.4375 C 9.785156 0.4375 8.03125 -0.0078125 6.5625 -0.90625 C 5.09375 -1.8125 3.960938 -3.078125 3.171875 -4.703125 C 2.378906 -6.335938 1.984375 -8.234375 1.984375 -10.390625 C 1.984375 -12.554688 2.378906 -14.46875 3.171875 -16.125 C 3.960938 -17.78125 5.070312 -19.070312 6.5 -20 C 7.925781 -20.925781 9.59375 -21.390625 11.5 -21.390625 C 12.59375 -21.390625 13.675781 -21.207031 14.75 -20.84375 C 15.820312 -20.476562 16.796875 -19.882812 17.671875 -19.0625 C 18.554688 -18.238281 19.257812 -17.15625 19.78125 -15.8125 C 20.300781 -14.46875 20.5625 -12.804688 20.5625 -10.828125 L 20.5625 -9.453125 L 5.234375 -9.453125 C 5.304688 -7.203125 5.945312 -5.472656 7.15625 -4.265625 C 8.363281 -3.066406 9.921875 -2.46875 11.828125 -2.46875 C 13.097656 -2.46875 14.191406 -2.742188 15.109375 -3.296875 C 16.023438 -3.847656 16.691406 -4.675781 17.109375 -5.78125 L 20.234375 -4.890625 C 19.742188 -3.296875 18.753906 -2.007812 17.265625 -1.03125 C 15.785156 -0.0507812 13.972656 0.4375 11.828125 0.4375 Z M 5.234375 -12.265625 L 17.265625 -12.265625 C 17.265625 -14.054688 16.742188 -15.539062 15.703125 -16.71875 C 14.660156 -17.894531 13.257812 -18.484375 11.5 -18.484375 C 10.257812 -18.484375 9.1875 -18.191406 8.28125 -17.609375 C 7.375 -17.035156 6.65625 -16.273438 6.125 -15.328125 C 5.601562 -14.378906 5.304688 -13.359375 5.234375 -12.265625 Z M 5.234375 -12.265625 "/></g></g></g><g fill="#5271ff" fill-opacity="1"><g transform="translate(187.350981, 50.095941)"><g><path d="M 11.546875 0.4375 C 9.566406 0.4375 7.863281 -0.0234375 6.4375 -0.953125 C 5.007812 -1.890625 3.910156 -3.175781 3.140625 -4.8125 C 2.367188 -6.457031 1.984375 -8.335938 1.984375 -10.453125 C 1.984375 -12.597656 2.378906 -14.492188 3.171875 -16.140625 C 3.960938 -17.785156 5.070312 -19.070312 6.5 -20 C 7.925781 -20.925781 9.59375 -21.390625 11.5 -21.390625 C 12.976562 -21.390625 14.3125 -21.113281 15.5 -20.5625 C 16.695312 -20.019531 17.675781 -19.253906 18.4375 -18.265625 C 19.195312 -17.273438 19.671875 -16.117188 19.859375 -14.796875 L 16.609375 -14.796875 C 16.359375 -15.753906 15.804688 -16.609375 14.953125 -17.359375 C 14.109375 -18.109375 12.972656 -18.484375 11.546875 -18.484375 C 9.648438 -18.484375 8.117188 -17.757812 6.953125 -16.3125 C 5.796875 -14.863281 5.21875 -12.945312 5.21875 -10.5625 C 5.21875 -8.113281 5.789062 -6.148438 6.9375 -4.671875 C 8.082031 -3.203125 9.617188 -2.46875 11.546875 -2.46875 C 12.816406 -2.46875 13.898438 -2.789062 14.796875 -3.4375 C 15.703125 -4.09375 16.304688 -5 16.609375 -6.15625 L 19.859375 -6.15625 C 19.671875 -4.914062 19.21875 -3.796875 18.5 -2.796875 C 17.78125 -1.804688 16.832031 -1.019531 15.65625 -0.4375 C 14.476562 0.144531 13.109375 0.4375 11.546875 0.4375 Z M 11.546875 0.4375 "/></g></g></g><g fill="#5271ff" fill-opacity="1"><g transform="translate(207.334179, 50.095941)"><g><path d="M 6.21875 -12.703125 L 6.21875 0 L 2.96875 0 L 2.96875 -28.15625 L 6.21875 -28.15625 L 6.21875 -17.8125 L 6.484375 -17.8125 C 6.984375 -18.90625 7.726562 -19.773438 8.71875 -20.421875 C 9.71875 -21.066406 11.046875 -21.390625 12.703125 -21.390625 C 14.867188 -21.390625 16.609375 -20.738281 17.921875 -19.4375 C 19.242188 -18.132812 19.90625 -16.128906 19.90625 -13.421875 L 19.90625 0 L 16.671875 0 L 16.671875 -13.203125 C 16.671875 -14.878906 16.234375 -16.175781 15.359375 -17.09375 C 14.492188 -18.019531 13.296875 -18.484375 11.765625 -18.484375 C 10.160156 -18.484375 8.832031 -17.976562 7.78125 -16.96875 C 6.738281 -15.96875 6.21875 -14.546875 6.21875 -12.703125 Z M 6.21875 -12.703125 "/></g></g></g><g fill="#ffffff" fill-opacity="1"><g transform="translate(120.129617, 73.16791)"><g><path d="M 4.703125 0.140625 C 4.273438 0.140625 3.84375 0.109375 3.40625 0.046875 C 2.976562 -0.015625 2.570312 -0.109375 2.1875 -0.234375 C 1.8125 -0.367188 1.46875 -0.535156 1.15625 -0.734375 C 0.976562 -0.847656 0.851562 -0.988281 0.78125 -1.15625 C 0.71875 -1.320312 0.695312 -1.488281 0.71875 -1.65625 C 0.75 -1.820312 0.816406 -1.960938 0.921875 -2.078125 C 1.023438 -2.203125 1.15625 -2.28125 1.3125 -2.3125 C 1.46875 -2.34375 1.640625 -2.296875 1.828125 -2.171875 C 2.253906 -1.921875 2.707031 -1.734375 3.1875 -1.609375 C 3.675781 -1.492188 4.179688 -1.4375 4.703125 -1.4375 C 5.484375 -1.4375 6.050781 -1.566406 6.40625 -1.828125 C 6.757812 -2.085938 6.9375 -2.425781 6.9375 -2.84375 C 6.9375 -3.1875 6.8125 -3.453125 6.5625 -3.640625 C 6.3125 -3.835938 5.878906 -4.003906 5.265625 -4.140625 L 3.65625 -4.46875 C 2.71875 -4.664062 2.019531 -5 1.5625 -5.46875 C 1.113281 -5.9375 0.890625 -6.550781 0.890625 -7.3125 C 0.890625 -7.789062 0.984375 -8.226562 1.171875 -8.625 C 1.367188 -9.019531 1.644531 -9.359375 2 -9.640625 C 2.363281 -9.921875 2.789062 -10.140625 3.28125 -10.296875 C 3.78125 -10.453125 4.332031 -10.53125 4.9375 -10.53125 C 5.519531 -10.53125 6.078125 -10.453125 6.609375 -10.296875 C 7.140625 -10.148438 7.613281 -9.9375 8.03125 -9.65625 C 8.1875 -9.550781 8.289062 -9.414062 8.34375 -9.25 C 8.40625 -9.09375 8.421875 -8.9375 8.390625 -8.78125 C 8.359375 -8.632812 8.285156 -8.507812 8.171875 -8.40625 C 8.066406 -8.300781 7.929688 -8.238281 7.765625 -8.21875 C 7.609375 -8.195312 7.429688 -8.242188 7.234375 -8.359375 C 6.867188 -8.566406 6.5 -8.710938 6.125 -8.796875 C 5.75 -8.890625 5.347656 -8.9375 4.921875 -8.9375 C 4.460938 -8.9375 4.070312 -8.867188 3.75 -8.734375 C 3.425781 -8.609375 3.175781 -8.429688 3 -8.203125 C 2.832031 -7.972656 2.75 -7.703125 2.75 -7.390625 C 2.75 -7.035156 2.863281 -6.75 3.09375 -6.53125 C 3.332031 -6.320312 3.738281 -6.160156 4.3125 -6.046875 L 5.921875 -5.703125 C 6.890625 -5.503906 7.609375 -5.179688 8.078125 -4.734375 C 8.554688 -4.296875 8.796875 -3.707031 8.796875 -2.96875 C 8.796875 -2.5 8.703125 -2.070312 8.515625 -1.6875 C 8.328125 -1.3125 8.050781 -0.984375 7.6875 -0.703125 C 7.332031 -0.429688 6.90625 -0.222656 6.40625 -0.078125 C 5.90625 0.0664062 5.335938 0.140625 4.703125 0.140625 Z M 4.703125 0.140625 "/></g></g></g><g fill="#ffffff" fill-opacity="1"><g transform="translate(129.411969, 73.16791)"><g><path d="M 5.78125 0.140625 C 4.78125 0.140625 3.90625 -0.078125 3.15625 -0.515625 C 2.40625 -0.953125 1.820312 -1.570312 1.40625 -2.375 C 1 -3.175781 0.796875 -4.117188 0.796875 -5.203125 C 0.796875 -6.015625 0.910156 -6.742188 1.140625 -7.390625 C 1.378906 -8.046875 1.71875 -8.601562 2.15625 -9.0625 C 2.59375 -9.53125 3.117188 -9.890625 3.734375 -10.140625 C 4.347656 -10.398438 5.03125 -10.53125 5.78125 -10.53125 C 6.789062 -10.53125 7.664062 -10.3125 8.40625 -9.875 C 9.15625 -9.4375 9.738281 -8.816406 10.15625 -8.015625 C 10.570312 -7.222656 10.78125 -6.285156 10.78125 -5.203125 C 10.78125 -4.390625 10.660156 -3.65625 10.421875 -3 C 10.179688 -2.34375 9.84375 -1.78125 9.40625 -1.3125 C 8.96875 -0.84375 8.441406 -0.484375 7.828125 -0.234375 C 7.222656 0.015625 6.539062 0.140625 5.78125 0.140625 Z M 5.78125 -1.46875 C 6.414062 -1.46875 6.957031 -1.613281 7.40625 -1.90625 C 7.851562 -2.207031 8.195312 -2.632812 8.4375 -3.1875 C 8.675781 -3.75 8.796875 -4.421875 8.796875 -5.203125 C 8.796875 -6.378906 8.535156 -7.289062 8.015625 -7.9375 C 7.492188 -8.582031 6.75 -8.90625 5.78125 -8.90625 C 5.15625 -8.90625 4.613281 -8.757812 4.15625 -8.46875 C 3.707031 -8.175781 3.363281 -7.753906 3.125 -7.203125 C 2.882812 -6.648438 2.765625 -5.984375 2.765625 -5.203125 C 2.765625 -4.023438 3.03125 -3.109375 3.5625 -2.453125 C 4.09375 -1.796875 4.832031 -1.46875 5.78125 -1.46875 Z M 5.78125 -1.46875 "/></g></g></g><g fill="#ffffff" fill-opacity="1"><g transform="translate(140.959749, 73.16791)"><g><path d="M 2.09375 0 C 1.789062 0 1.554688 -0.0820312 1.390625 -0.25 C 1.222656 -0.425781 1.140625 -0.664062 1.140625 -0.96875 L 1.140625 -9.46875 C 1.140625 -9.78125 1.21875 -10.015625 1.375 -10.171875 C 1.539062 -10.335938 1.773438 -10.421875 2.078125 -10.421875 C 2.378906 -10.421875 2.609375 -10.335938 2.765625 -10.171875 C 2.929688 -10.015625 3.015625 -9.78125 3.015625 -9.46875 L 3.015625 -1.609375 L 7.28125 -1.609375 C 7.550781 -1.609375 7.753906 -1.535156 7.890625 -1.390625 C 8.035156 -1.253906 8.109375 -1.0625 8.109375 -0.8125 C 8.109375 -0.550781 8.035156 -0.347656 7.890625 -0.203125 C 7.753906 -0.0664062 7.550781 0 7.28125 0 Z M 2.09375 0 "/></g></g></g><g fill="#ffffff" fill-opacity="1"><g transform="translate(149.227074, 73.16791)"><g><path d="M 5.453125 0.140625 C 4.734375 0.140625 4.097656 0.0507812 3.546875 -0.125 C 3.003906 -0.3125 2.546875 -0.585938 2.171875 -0.953125 C 1.804688 -1.328125 1.53125 -1.789062 1.34375 -2.34375 C 1.15625 -2.894531 1.0625 -3.53125 1.0625 -4.25 L 1.0625 -9.53125 C 1.0625 -9.863281 1.140625 -10.109375 1.296875 -10.265625 C 1.460938 -10.421875 1.695312 -10.5 2 -10.5 C 2.300781 -10.5 2.53125 -10.421875 2.6875 -10.265625 C 2.851562 -10.109375 2.9375 -9.863281 2.9375 -9.53125 L 2.9375 -4.265625 C 2.9375 -3.335938 3.148438 -2.640625 3.578125 -2.171875 C 4.003906 -1.703125 4.628906 -1.46875 5.453125 -1.46875 C 6.265625 -1.46875 6.878906 -1.703125 7.296875 -2.171875 C 7.722656 -2.640625 7.9375 -3.335938 7.9375 -4.265625 L 7.9375 -9.53125 C 7.9375 -9.863281 8.015625 -10.109375 8.171875 -10.265625 C 8.335938 -10.421875 8.570312 -10.5 8.875 -10.5 C 9.164062 -10.5 9.390625 -10.421875 9.546875 -10.265625 C 9.710938 -10.109375 9.796875 -9.863281 9.796875 -9.53125 L 9.796875 -4.25 C 9.796875 -3.289062 9.628906 -2.484375 9.296875 -1.828125 C 8.972656 -1.171875 8.488281 -0.675781 7.84375 -0.34375 C 7.195312 -0.0195312 6.398438 0.140625 5.453125 0.140625 Z M 5.453125 0.140625 "/></g></g></g><g fill="#ffffff" fill-opacity="1"><g transform="translate(160.08345, 73.16791)"><g><path d="M 4.578125 0.125 C 4.273438 0.125 4.039062 0.0390625 3.875 -0.125 C 3.71875 -0.300781 3.640625 -0.546875 3.640625 -0.859375 L 3.640625 -8.796875 L 0.765625 -8.796875 C 0.503906 -8.796875 0.300781 -8.867188 0.15625 -9.015625 C 0.0195312 -9.160156 -0.046875 -9.351562 -0.046875 -9.59375 C -0.046875 -9.851562 0.0195312 -10.046875 0.15625 -10.171875 C 0.300781 -10.304688 0.503906 -10.375 0.765625 -10.375 L 8.390625 -10.375 C 8.640625 -10.375 8.835938 -10.304688 8.984375 -10.171875 C 9.128906 -10.046875 9.203125 -9.851562 9.203125 -9.59375 C 9.203125 -9.351562 9.128906 -9.160156 8.984375 -9.015625 C 8.835938 -8.867188 8.640625 -8.796875 8.390625 -8.796875 L 5.515625 -8.796875 L 5.515625 -0.859375 C 5.515625 -0.546875 5.4375 -0.300781 5.28125 -0.125 C 5.125 0.0390625 4.890625 0.125 4.578125 0.125 Z M 4.578125 0.125 "/></g></g></g><g fill="#ffffff" fill-opacity="1"><g transform="translate(169.218699, 73.16791)"><g><path d="M 2.078125 0.125 C 1.773438 0.125 1.539062 0.0390625 1.375 -0.125 C 1.21875 -0.300781 1.140625 -0.546875 1.140625 -0.859375 L 1.140625 -9.515625 C 1.140625 -9.835938 1.21875 -10.082031 1.375 -10.25 C 1.539062 -10.414062 1.773438 -10.5 2.078125 -10.5 C 2.378906 -10.5 2.609375 -10.414062 2.765625 -10.25 C 2.929688 -10.082031 3.015625 -9.835938 3.015625 -9.515625 L 3.015625 -0.859375 C 3.015625 -0.546875 2.9375 -0.300781 2.78125 -0.125 C 2.625 0.0390625 2.390625 0.125 2.078125 0.125 Z M 2.078125 0.125 "/></g></g></g><g fill="#ffffff" fill-opacity="1"><g transform="translate(173.367076, 73.16791)"><g><path d="M 5.78125 0.140625 C 4.78125 0.140625 3.90625 -0.078125 3.15625 -0.515625 C 2.40625 -0.953125 1.820312 -1.570312 1.40625 -2.375 C 1 -3.175781 0.796875 -4.117188 0.796875 -5.203125 C 0.796875 -6.015625 0.910156 -6.742188 1.140625 -7.390625 C 1.378906 -8.046875 1.71875 -8.601562 2.15625 -9.0625 C 2.59375 -9.53125 3.117188 -9.890625 3.734375 -10.140625 C 4.347656 -10.398438 5.03125 -10.53125 5.78125 -10.53125 C 6.789062 -10.53125 7.664062 -10.3125 8.40625 -9.875 C 9.15625 -9.4375 9.738281 -8.816406 10.15625 -8.015625 C 10.570312 -7.222656 10.78125 -6.285156 10.78125 -5.203125 C 10.78125 -4.390625 10.660156 -3.65625 10.421875 -3 C 10.179688 -2.34375 9.84375 -1.78125 9.40625 -1.3125 C 8.96875 -0.84375 8.441406 -0.484375 7.828125 -0.234375 C 7.222656 0.015625 6.539062 0.140625 5.78125 0.140625 Z M 5.78125 -1.46875 C 6.414062 -1.46875 6.957031 -1.613281 7.40625 -1.90625 C 7.851562 -2.207031 8.195312 -2.632812 8.4375 -3.1875 C 8.675781 -3.75 8.796875 -4.421875 8.796875 -5.203125 C 8.796875 -6.378906 8.535156 -7.289062 8.015625 -7.9375 C 7.492188 -8.582031 6.75 -8.90625 5.78125 -8.90625 C 5.15625 -8.90625 4.613281 -8.757812 4.15625 -8.46875 C 3.707031 -8.175781 3.363281 -7.753906 3.125 -7.203125 C 2.882812 -6.648438 2.765625 -5.984375 2.765625 -5.203125 C 2.765625 -4.023438 3.03125 -3.109375 3.5625 -2.453125 C 4.09375 -1.796875 4.832031 -1.46875 5.78125 -1.46875 Z M 5.78125 -1.46875 "/></g></g></g><g fill="#ffffff" fill-opacity="1"><g transform="translate(184.914856, 73.16791)"><g><path d="M 2.015625 0.125 C 1.734375 0.125 1.515625 0.046875 1.359375 -0.109375 C 1.210938 -0.273438 1.140625 -0.503906 1.140625 -0.796875 L 1.140625 -9.546875 C 1.140625 -9.859375 1.210938 -10.09375 1.359375 -10.25 C 1.515625 -10.414062 1.710938 -10.5 1.953125 -10.5 C 2.179688 -10.5 2.351562 -10.457031 2.46875 -10.375 C 2.582031 -10.289062 2.71875 -10.148438 2.875 -9.953125 L 8.5 -2.640625 L 8.125 -2.640625 L 8.125 -9.59375 C 8.125 -9.882812 8.195312 -10.109375 8.34375 -10.265625 C 8.5 -10.421875 8.722656 -10.5 9.015625 -10.5 C 9.296875 -10.5 9.507812 -10.421875 9.65625 -10.265625 C 9.800781 -10.109375 9.875 -9.882812 9.875 -9.59375 L 9.875 -0.765625 C 9.875 -0.492188 9.804688 -0.273438 9.671875 -0.109375 C 9.535156 0.046875 9.347656 0.125 9.109375 0.125 C 8.878906 0.125 8.695312 0.0820312 8.5625 0 C 8.4375 -0.09375 8.296875 -0.238281 8.140625 -0.4375 L 2.515625 -7.75 L 2.890625 -7.75 L 2.890625 -0.796875 C 2.890625 -0.503906 2.8125 -0.273438 2.65625 -0.109375 C 2.507812 0.046875 2.296875 0.125 2.015625 0.125 Z M 2.015625 0.125 "/></g></g></g><g fill="#ffffff" fill-opacity="1"><g transform="translate(195.918346, 73.16791)"><g><path d="M 4.703125 0.140625 C 4.273438 0.140625 3.84375 0.109375 3.40625 0.046875 C 2.976562 -0.015625 2.570312 -0.109375 2.1875 -0.234375 C 1.8125 -0.367188 1.46875 -0.535156 1.15625 -0.734375 C 0.976562 -0.847656 0.851562 -0.988281 0.78125 -1.15625 C 0.71875 -1.320312 0.695312 -1.488281 0.71875 -1.65625 C 0.75 -1.820312 0.816406 -1.960938 0.921875 -2.078125 C 1.023438 -2.203125 1.15625 -2.28125 1.3125 -2.3125 C 1.46875 -2.34375 1.640625 -2.296875 1.828125 -2.171875 C 2.253906 -1.921875 2.707031 -1.734375 3.1875 -1.609375 C 3.675781 -1.492188 4.179688 -1.4375 4.703125 -1.4375 C 5.484375 -1.4375 6.050781 -1.566406 6.40625 -1.828125 C 6.757812 -2.085938 6.9375 -2.425781 6.9375 -2.84375 C 6.9375 -3.1875 6.8125 -3.453125 6.5625 -3.640625 C 6.3125 -3.835938 5.878906 -4.003906 5.265625 -4.140625 L 3.65625 -4.46875 C 2.71875 -4.664062 2.019531 -5 1.5625 -5.46875 C 1.113281 -5.9375 0.890625 -6.550781 0.890625 -7.3125 C 0.890625 -7.789062 0.984375 -8.226562 1.171875 -8.625 C 1.367188 -9.019531 1.644531 -9.359375 2 -9.640625 C 2.363281 -9.921875 2.789062 -10.140625 3.28125 -10.296875 C 3.78125 -10.453125 4.332031 -10.53125 4.9375 -10.53125 C 5.519531 -10.53125 6.078125 -10.453125 6.609375 -10.296875 C 7.140625 -10.148438 7.613281 -9.9375 8.03125 -9.65625 C 8.1875 -9.550781 8.289062 -9.414062 8.34375 -9.25 C 8.40625 -9.09375 8.421875 -8.9375 8.390625 -8.78125 C 8.359375 -8.632812 8.285156 -8.507812 8.171875 -8.40625 C 8.066406 -8.300781 7.929688 -8.238281 7.765625 -8.21875 C 7.609375 -8.195312 7.429688 -8.242188 7.234375 -8.359375 C 6.867188 -8.566406 6.5 -8.710938 6.125 -8.796875 C 5.75 -8.890625 5.347656 -8.9375 4.921875 -8.9375 C 4.460938 -8.9375 4.070312 -8.867188 3.75 -8.734375 C 3.425781 -8.609375 3.175781 -8.429688 3 -8.203125 C 2.832031 -7.972656 2.75 -7.703125 2.75 -7.390625 C 2.75 -7.035156 2.863281 -6.75 3.09375 -6.53125 C 3.332031 -6.320312 3.738281 -6.160156 4.3125 -6.046875 L 5.921875 -5.703125 C 6.890625 -5.503906 7.609375 -5.179688 8.078125 -4.734375 C 8.554688 -4.296875 8.796875 -3.707031 8.796875 -2.96875 C 8.796875 -2.5 8.703125 -2.070312 8.515625 -1.6875 C 8.328125 -1.3125 8.050781 -0.984375 7.6875 -0.703125 C 7.332031 -0.429688 6.90625 -0.222656 6.40625 -0.078125 C 5.90625 0.0664062 5.335938 0.140625 4.703125 0.140625 Z M 4.703125 0.140625 "/></g></g></g></svg>